<svg xmlns="http://www.w3.org/2000/svg" width="473" height="449" fill="none"><path fill="#fff" fill-rule="evenodd" d="M0 124.5C0 55.74 55.74 0 124.5 0c49.239 0 91.802 28.584 112 70.064C256.698 28.584 299.261 0 348.5 0 417.26 0 473 55.74 473 124.5c0 40.966-19.786 77.312-50.323 100C453.214 247.188 473 283.534 473 324.5c0 68.759-55.74 124.5-124.5 124.5-49.239 0-91.802-28.584-112-70.063C216.302 420.416 173.739 449 124.5 449 55.74 449 0 393.259 0 324.5c0-40.966 19.786-77.312 50.323-100C19.786 201.812 0 165.466 0 124.5" clip-rule="evenodd"/></svg>